<svg width="329" height="329" xmlns="http://www.w3.org/2000/svg" xmlns:xlink="http://www.w3.org/1999/xlink" overflow="hidden"><defs><clipPath id="clip0"><path d="M476 10 805 10 805 339 476 339Z" fill-rule="evenodd" clip-rule="evenodd"/></clipPath><clipPath id="clip1"><path d="M553 51 727 51 727 224 553 224Z" fill-rule="evenodd" clip-rule="evenodd"/></clipPath><clipPath id="clip2"><path d="M553 51 727 51 727 224 553 224Z" fill-rule="evenodd" clip-rule="evenodd"/></clipPath><clipPath id="clip3"><path d="M553 51 727 51 727 224 553 224Z" fill-rule="evenodd" clip-rule="evenodd"/></clipPath></defs><g clip-path="url(#clip0)" transform="translate(-476 -10)"><path d="M477.5 18.6298C477.5 14.6921 480.692 11.5001 484.63 11.5001L796.37 11.5001C800.308 11.5001 803.5 14.6921 803.5 18.6298L803.5 331.37C803.5 335.308 800.308 338.5 796.37 338.5L484.63 338.5C480.692 338.5 477.5 335.308 477.5 331.37Z" stroke="#D0CECE" stroke-width="1.33333" stroke-miterlimit="8" fill="#FFFFFF" fill-rule="evenodd"/><g clip-path="url(#clip1)"><g clip-path="url(#clip2)"><g clip-path="url(#clip3)"><path d="M50.8417 92.4589 173 29.8901 71.698 104.377 131.287 143.11 173 29.8901 0 65.6437Z" fill="#00C464" transform="matrix(1.00578 0 -0 1 553 51)"/><path d="M71.698 104.377 59.9678 143.11 50.8417 92.4589 173 29.8901Z" fill="#00924A" transform="matrix(1.00578 0 -0 1 553 51)"/><path d="M71.698 104.377 59.7801 143.11 95.0809 119.575Z" fill="#006C37" transform="matrix(1.00578 0 -0 1 553 51)"/></g></g></g><rect x="517" y="241" width="246" height="35" fill="#FFFFFF"/><text fill="#404040" font-family="Montserrat,Montserrat_MSFontService,sans-serif" font-weight="500" font-size="21" transform="translate(560.75 266)">About EcoCart</text></g></svg>